<svg xmlns="http://www.w3.org/2000/svg" width="44" height="44" viewBox="0 0 44 44" fill="none"><g clip-path="url(#clip0_375_388)"><path d="M36.6667 12.8333H33.4803C34.5169 11.9196 35.3397 10.7889 35.8904 9.5216C36.441 8.25425 36.7061 6.88125 36.6667 5.5C36.6667 5.01377 36.4735 4.54745 36.1297 4.20364C35.7859 3.85982 35.3196 3.66667 34.8333 3.66667C34.3471 3.66667 33.8808 3.85982 33.537 4.20364C33.1932 4.54745 33 5.01377 33 5.5C33 10.307 28.6532 11.9717 25.3477 12.5418C26.5677 10.3786 27.3022 7.97568 27.5 5.5C27.5 4.04131 26.9205 2.64236 25.8891 1.61091C24.8576 0.579463 23.4587 0 22 0C20.5413 0 19.1424 0.579463 18.1109 1.61091C17.0795 2.64236 16.5 4.04131 16.5 5.5C16.6978 7.97568 17.4323 10.3786 18.6523 12.5418C15.3468 11.9717 11 10.307 11 5.5C11 5.01377 10.8068 4.54745 10.463 4.20364C10.1192 3.85982 9.6529 3.66667 9.16667 3.66667C8.68044 3.66667 8.21412 3.85982 7.8703 4.20364C7.52649 4.54745 7.33333 5.01377 7.33333 5.5C7.29394 6.88125 7.55897 8.25425 8.10963 9.5216C8.6603 10.7889 9.4831 11.9196 10.5197 12.8333H7.33333C5.38841 12.8333 3.52315 13.606 2.14788 14.9812C0.772617 16.3565 0 18.2217 0 20.1667L0 22C0 22.9725 0.386308 23.9051 1.07394 24.5927C1.76158 25.2804 2.69421 25.6667 3.66667 25.6667V34.8333C3.66958 37.2636 4.63628 39.5935 6.35474 41.3119C8.07319 43.0304 10.4031 43.9971 12.8333 44H31.1667C33.5969 43.9971 35.9268 43.0304 37.6453 41.3119C39.3637 39.5935 40.3304 37.2636 40.3333 34.8333V25.6667C41.3058 25.6667 42.2384 25.2804 42.9261 24.5927C43.6137 23.9051 44 22.9725 44 22V20.1667C44 18.2217 43.2274 16.3565 41.8521 14.9812C40.4768 13.606 38.6116 12.8333 36.6667 12.8333ZM22 3.66667C22.4862 3.66667 22.9525 3.85982 23.2964 4.20364C23.6402 4.54745 23.8333 5.01377 23.8333 5.5C23.612 7.44852 22.9877 9.32967 22 11.0238C21.0123 9.32967 20.388 7.44852 20.1667 5.5C20.1667 5.01377 20.3598 4.54745 20.7036 4.20364C21.0475 3.85982 21.5138 3.66667 22 3.66667ZM3.66667 20.1667C3.66667 19.1942 4.05298 18.2616 4.74061 17.5739C5.42824 16.8863 6.36087 16.5 7.33333 16.5H20.1667V22H3.66667V20.1667ZM7.33333 34.8333V25.6667H20.1667V40.3333H12.8333C11.3746 40.3333 9.9757 39.7539 8.94425 38.7224C7.9128 37.691 7.33333 36.292 7.33333 34.8333ZM36.6667 34.8333C36.6667 36.292 36.0872 37.691 35.0558 38.7224C34.0243 39.7539 32.6254 40.3333 31.1667 40.3333H23.8333V25.6667H36.6667V34.8333ZM23.8333 22V16.5H36.6667C37.6391 16.5 38.5718 16.8863 39.2594 17.5739C39.947 18.2616 40.3333 19.1942 40.3333 20.1667V22H23.8333Z" fill="#04F77C"></path></g><defs><clipPath id="clip0_375_388"><rect width="44" height="44" fill="white"></rect></clipPath></defs></svg>